<svg version="1.2" xmlns="http://www.w3.org/2000/svg" viewBox="0 0 26 22" width="26" height="22">
	<title>folder-svg</title>
	<style>
		.s0 { opacity: .4;fill: #ffffff } 
	</style>
	<path fill-rule="evenodd" class="s0" d="m24.6 5.7c0.6 0.6 0.9 1.3 0.9 2.1v10.8c0 0.8-0.3 1.6-0.9 2.2-0.6 0.5-1.4 0.8-2.2 0.8h-18.8c-0.8 0-1.6-0.3-2.2-0.8-0.6-0.6-0.9-1.4-0.9-2.2v-15.2c0-0.8 0.3-1.6 0.9-2.2 0.6-0.5 1.4-0.8 2.2-0.8h5.8q0.3 0 0.5 0.1 0.3 0.1 0.4 0.3l3.3 4h8.8c0.8 0 1.6 0.3 2.2 0.9zm-1.6 2.1q0-0.1-0.1-0.2 0-0.1-0.1-0.2-0.1 0-0.2-0.1-0.1 0-0.2 0h-9.4q-0.3 0-0.5-0.1-0.3-0.1-0.5-0.4l-3.2-3.9h-5.2q-0.1 0-0.2 0-0.1 0-0.2 0.1-0.1 0.1-0.1 0.2-0.1 0.1-0.1 0.2v15.2q0 0.1 0.1 0.2 0 0.1 0.1 0.2 0.1 0 0.2 0.1 0.1 0 0.2 0h18.8q0.1 0 0.2 0 0.1-0.1 0.2-0.1 0.1-0.1 0.1-0.2 0.1-0.1 0.1-0.2z"/>
	<path class="s0" d="m15.5 12.3l-1.3-0.1 0.1-1.2c0-0.3-0.2-0.6-0.4-0.9-0.3-0.2-0.6-0.4-0.9-0.4-0.3 0-0.6 0.2-0.9 0.4-0.2 0.3-0.3 0.6-0.3 0.9v1.2h-1.3c-0.3 0-0.6 0.2-0.9 0.4-0.2 0.3-0.3 0.6-0.3 0.9 0 0.3 0.1 0.6 0.3 0.9 0.3 0.2 0.6 0.3 0.9 0.3h1.3v1.3c0 0.3 0.1 0.6 0.3 0.9 0.3 0.2 0.6 0.3 0.9 0.3 0.3 0 0.6-0.1 0.9-0.3 0.2-0.3 0.4-0.6 0.4-0.9v-1.3h1.2c0.3 0 0.6-0.1 0.9-0.3 0.2-0.3 0.4-0.6 0.4-0.9 0-0.3-0.2-0.6-0.4-0.9-0.3-0.2-0.6-0.4-0.9-0.4z"/>
</svg>