<svg version="1.2" xmlns="http://www.w3.org/2000/svg" viewBox="0 0 28 28" width="28" height="28">
	<title>instagram-svg</title>
	<style>
		.s0 { opacity: .8;fill: #FF01B7 } 
	</style>
	<path fill-rule="evenodd" class="s0" d="m27.4 8.5c0.1 1.4 0.1 1.9 0.1 5.6 0 3.6 0 4.1-0.1 5.5q0 1.7-0.6 3.3-0.5 1.4-1.6 2.4-1 1-2.3 1.6-1.6 0.5-3.3 0.6c-1.5 0.1-1.9 0.1-5.6 0.1-3.7 0-4.1-0.1-5.6-0.1q-1.7-0.1-3.2-0.7-1.4-0.5-2.4-1.6-1.1-1-1.6-2.3-0.6-1.6-0.6-3.3c-0.1-1.5-0.1-1.9-0.1-5.6 0-3.7 0-4.1 0.1-5.6q0-1.6 0.6-3.2 0.5-1.4 1.6-2.4 1-1.1 2.4-1.6 1.5-0.6 3.2-0.6c1.5-0.1 1.9-0.1 5.6-0.1 3.7 0 4.1 0 5.6 0.1q1.7 0 3.3 0.6 1.3 0.5 2.3 1.6 1.1 1 1.6 2.4 0.6 1.6 0.6 3.3zm-2.4 11c0.1-1.5 0.1-1.9 0.1-5.5 0-3.7-0.1-4.1-0.1-5.5q-0.1-1.3-0.5-2.5-0.3-0.9-1-1.6-0.7-0.6-1.6-1-1.2-0.4-2.5-0.4c-1.4-0.1-1.8-0.1-5.4-0.1-3.7 0-4.1 0-5.5 0.1q-1.3 0-2.5 0.4c-1.2 0.5-2.2 1.4-2.6 2.6q-0.5 1.2-0.5 2.5c-0.1 1.5-0.1 1.9-0.1 5.5 0 3.7 0.1 4.1 0.1 5.5q0 1.3 0.5 2.5 0.3 0.9 1 1.6 0.7 0.6 1.6 1 1.2 0.4 2.5 0.4c1.4 0.1 1.8 0.1 5.5 0.1 3.6 0 4 0 5.4-0.1q1.3 0 2.5-0.4 0.9-0.4 1.6-1 0.7-0.7 1-1.6 0.5-1.2 0.5-2.5z"/>
	<path fill-rule="evenodd" class="s0" d="m18.9 9.1c1.3 1.3 2 3.1 2 4.9 0 1.8-0.7 3.6-2 4.9-1.3 1.3-3.1 2-4.9 2-1.8 0-3.6-0.7-4.9-2-1.3-1.3-2-3.1-2-4.9 0-1.8 0.7-3.6 2-4.9 1.3-1.3 3.1-2 4.9-2 1.8 0 3.6 0.7 4.9 2zm-1.7 8.1c0.8-0.9 1.3-2 1.3-3.2 0-1.2-0.5-2.3-1.3-3.2-0.9-0.8-2-1.3-3.2-1.3-1.2 0-2.3 0.5-3.2 1.3-0.8 0.9-1.3 2-1.3 3.2 0 1.2 0.5 2.3 1.3 3.2 0.9 0.8 2 1.3 3.2 1.3 1.2 0 2.3-0.5 3.2-1.3z"/>
	<path class="s0" d="m21.2 8.4c0.9 0 1.6-0.7 1.6-1.6 0-0.9-0.7-1.6-1.6-1.6-0.9 0-1.6 0.7-1.6 1.6 0 0.9 0.7 1.6 1.6 1.6z"/>
</svg>